Trimmed_running_0600000001_forces_filt20Hz.mot
version=1
nRows=33
nColumns=19
inDegrees=yes
endheader
time	R_ground_force_vx	R_ground_force_vy	R_ground_force_vz	R_ground_force_px	R_ground_force_py	R_ground_force_pz	R_ground_torque_x	R_ground_torque_y	R_ground_torque_z	L_ground_force_vx	L_ground_force_vy	L_ground_force_vz	L_ground_force_px	L_ground_force_py	L_ground_force_pz	L_ground_torque_x	L_ground_torque_y	L_ground_torque_z	
4.749500	  0.000000	  0.000000	  0.000000	  0.275102	  0.000000	 -0.491433	  0.000000	  0.000000	  0.000000	  0.000000	  0.000000	  0.000000	  1.395236	  0.000000	 -0.167654	  0.000000	  0.000000	  0.000000
4.750000	  0.000000	  0.000000	  0.000000	  0.276173	  0.000000	 -0.493548	  0.000000	  0.000000	  0.000000	  0.000000	  0.000000	  0.000000	  1.394582	  0.000000	 -0.167097	  0.000000	  0.000000	  0.000000
4.750500	  0.000000	  0.000000	  0.000000	  0.277416	  0.000000	 -0.495522	  0.000000	  0.000000	  0.000000	  0.000000	  0.000000	  0.000000	  1.393675	  0.000000	 -0.166366	  0.000000	  0.000000	  0.000000
4.751000	  0.000000	  0.000000	  0.000000	  0.278658	  0.000000	 -0.497496	  0.000000	  0.000000	  0.000000	  0.000000	  0.000000	  0.000000	  1.392767	  0.000000	 -0.165635	  0.000000	  0.000000	  0.000000
4.751500	  0.000000	  0.000000	  0.000000	  0.279901	  0.000000	 -0.499471	  0.000000	  0.000000	  0.000000	  0.000000	  0.000000	  0.000000	  1.391860	  0.000000	 -0.164904	  0.000000	  0.000000	  0.000000
4.752000	  0.000000	  0.000000	  0.000000	  0.281143	  0.000000	 -0.501445	  0.000000	  0.000000	  0.000000	  0.000000	  0.000000	  0.000000	  1.390952	  0.000000	 -0.164173	  0.000000	  0.000000	  0.000000
4.752500	  0.000000	  0.000000	  0.000000	  0.282386	  0.000000	 -0.503419	  0.000000	  0.000000	  0.000000	  0.000000	  0.000000	  0.000000	  1.390045	  0.000000	 -0.163442	  0.000000	  0.000000	  0.000000
4.753000	  0.000000	  0.000000	  0.000000	  0.283629	  0.000000	 -0.505393	  0.000000	  0.000000	  0.000000	  0.000000	  0.000000	  0.000000	  1.389138	  0.000000	 -0.162711	  0.000000	  0.000000	  0.000000
4.753500	  0.000000	  0.000000	  0.000000	  0.284871	  0.000000	 -0.507367	  0.000000	  0.000000	  0.000000	  0.000000	  0.000000	  0.000000	  1.388230	  0.000000	 -0.161980	  0.000000	  0.000000	  0.000000
4.754000	  0.000000	  0.000000	  0.000000	  0.286114	  0.000000	 -0.509342	  0.000000	  0.000000	  0.000000	  0.000000	  0.000000	  0.000000	  1.387323	  0.000000	 -0.161249	  0.000000	  0.000000	  0.000000
4.754500	  0.000000	  0.000000	  0.000000	  0.287356	  0.000000	 -0.511316	  0.000000	  0.000000	  0.000000	  0.000000	  0.000000	  0.000000	  1.386415	  0.000000	 -0.160518	  0.000000	  0.000000	  0.000000
4.755000	  0.000000	  0.000000	  0.000000	  0.288599	  0.000000	 -0.513290	  0.000000	  0.000000	  0.000000	  0.000000	  0.000000	  0.000000	  1.385508	  0.000000	 -0.159787	  0.000000	  0.000000	  0.000000
4.755500	  0.000000	  0.000000	  0.000000	  0.290040	  0.000000	 -0.515074	  0.000000	  0.000000	  0.000000	  0.000000	  0.000000	  0.000000	  1.384371	  0.000000	 -0.158927	  0.000000	  0.000000	  0.000000
4.756000	  0.000000	  0.000000	  0.000000	  0.291481	  0.000000	 -0.516858	  0.000000	  0.000000	  0.000000	  0.000000	  0.000000	  0.000000	  1.383234	  0.000000	 -0.158067	  0.000000	  0.000000	  0.000000
4.756500	  0.000000	  0.000000	  0.000000	  0.292921	  0.000000	 -0.518642	  0.000000	  0.000000	  0.000000	  0.000000	  0.000000	  0.000000	  1.382097	  0.000000	 -0.157208	  0.000000	  0.000000	  0.000000
4.757000	  0.000000	  0.000000	  0.000000	  0.294362	  0.000000	 -0.520426	  0.000000	  0.000000	  0.000000	  0.000000	  0.000000	  0.000000	  1.380960	  0.000000	 -0.156348	  0.000000	  0.000000	  0.000000
4.757500	  0.000000	  0.000000	  0.000000	  0.295803	  0.000000	 -0.522210	  0.000000	  0.000000	  0.000000	  0.000000	  0.000000	  0.000000	  1.379823	  0.000000	 -0.155488	  0.000000	  0.000000	  0.000000
4.758000	  0.000000	  0.000000	  0.000000	  0.297244	  0.000000	 -0.523993	  0.000000	  0.000000	  0.000000	  0.000000	  0.000000	  0.000000	  1.378686	  0.000000	 -0.154628	  0.000000	  0.000000	  0.000000
4.758500	  0.000000	  0.000000	  0.000000	  0.298685	  0.000000	 -0.525777	  0.000000	  0.000000	  0.000000	  0.000000	  0.000000	  0.000000	  1.377549	  0.000000	 -0.153768	  0.000000	  0.000000	  0.000000
4.759000	  0.000000	  0.000000	  0.000000	  0.300125	  0.000000	 -0.527561	  0.000000	  0.000000	  0.000000	  0.000000	  0.000000	  0.000000	  1.376412	  0.000000	 -0.152909	  0.000000	  0.000000	  0.000000
4.759500	  0.000000	  0.000000	  0.000000	  0.301566	  0.000000	 -0.529345	  0.000000	  0.000000	  0.000000	  0.000000	  0.000000	  0.000000	  1.375275	  0.000000	 -0.152049	  0.000000	  0.000000	  0.000000
4.760000	  0.000000	  0.000000	  0.000000	  0.303007	  0.000000	 -0.531129	  0.000000	  0.000000	  0.000000	  0.000000	  0.000000	  0.000000	  1.374138	  0.000000	 -0.151189	  0.000000	  0.000000	  0.000000
4.760500	  0.000000	  0.000000	  0.000000	  0.304577	  0.000000	 -0.532721	  0.000000	  0.000000	  0.000000	  0.000000	  0.000000	  0.000000	  1.372752	  0.000000	 -0.150218	  0.000000	  0.000000	  0.000000
4.761000	  0.000000	  0.000000	  0.000000	  0.306146	  0.000000	 -0.534312	  0.000000	  0.000000	  0.000000	  0.000000	  0.000000	  0.000000	  1.371367	  0.000000	 -0.149246	  0.000000	  0.000000	  0.000000
4.761500	  0.000000	  0.000000	  0.000000	  0.307716	  0.000000	 -0.535904	  0.000000	  0.000000	  0.000000	  0.000000	  0.000000	  0.000000	  1.369981	  0.000000	 -0.148275	  0.000000	  0.000000	  0.000000
4.762000	  0.000000	  0.000000	  0.000000	  0.309285	  0.000000	 -0.537495	  0.000000	  0.000000	  0.000000	  0.000000	  0.000000	  0.000000	  1.368596	  0.000000	 -0.147303	  0.000000	  0.000000	  0.000000
4.762500	  0.000000	  0.000000	  0.000000	  0.310855	  0.000000	 -0.539087	  0.000000	  0.000000	  0.000000	  0.000000	  0.000000	  0.000000	  1.367210	  0.000000	 -0.146332	  0.000000	  0.000000	  0.000000
4.763000	  0.000000	  0.000000	  0.000000	  0.312424	  0.000000	 -0.540678	  0.000000	  0.000000	  0.000000	  0.000000	  0.000000	  0.000000	  1.365824	  0.000000	 -0.145361	  0.000000	  0.000000	  0.000000
4.763500	  0.000000	  0.000000	  0.000000	  0.313993	  0.000000	 -0.542269	  0.000000	  0.000000	  0.000000	  0.000000	  0.000000	  0.000000	  1.364439	  0.000000	 -0.144389	  0.000000	  0.000000	  0.000000
4.764000	  0.000000	  0.000000	  0.000000	  0.315563	  0.000000	 -0.543861	  0.000000	  0.000000	  0.000000	  0.000000	  0.000000	  0.000000	  1.363053	  0.000000	 -0.143418	  0.000000	  0.000000	  0.000000
4.764500	  0.000000	  0.000000	  0.000000	  0.317133	  0.000000	 -0.545453	  0.000000	  0.000000	  0.000000	  0.000000	  0.000000	  0.000000	  1.361668	  0.000000	 -0.142446	  0.000000	  0.000000	  0.000000
4.765000	  0.000000	  0.000000	  0.000000	  0.318702	  0.000000	 -0.547044	  0.000000	  0.000000	  0.000000	  0.000000	  0.000000	  0.000000	  1.360282	  0.000000	 -0.141475	  0.000000	  0.000000	  0.000000
4.765500	  0.000000	  0.000000	  0.000000	  0.320377	  0.000000	 -0.548459	  0.000000	  0.000000	  0.000000	  0.000000	  0.000000	  0.000000	  1.358718	  0.000000	 -0.140414	  0.000000	  0.000000	  0.000000
